<svg id="Layer_2" data-name="Layer 2" xmlns="http://www.w3.org/2000/svg" viewBox="0 0 132.51 50"><title>logo-iq</title><rect y="0.01" width="6.73" height="47.98" style="fill:#444445"/><rect x="35.64" y="24.76" width="6.55" height="27.98" transform="translate(-16.28 37.57) rotate(-44.69)" style="fill:#444445"/><path d="M132.69,31.67a6.18,6.18,0,0,1,0-12.36h.09V1L60.32,1.1l-9.75,9.34a23.87,23.87,0,0,1-.07,27.81c0,.34,0,.54,0,.54l9.82,10h72.47V31.66Z" transform="translate(-0.28 -1)" style="fill:#fff"/><path d="M25.3,8.23a16.76,16.76,0,0,1,16,21.91l5.52,5.58A24,24,0,0,0,10.54,6.09v11A16.79,16.79,0,0,1,25.3,8.23Z" transform="translate(-0.28 -1)" style="fill:#f1623e"/><path d="M30.66,40.88a16.71,16.71,0,0,1-20.13-7.93v11a24,24,0,0,0,25.6,2.5Z" transform="translate(-0.28 -1)" style="fill:#f1623e"/><path d="M59.5,34.24l1.55-.32a6.09,6.09,0,0,0,.21,1.61A3.43,3.43,0,0,0,62,36.89a3.53,3.53,0,0,0,1.27.92,4.63,4.63,0,0,0,1.89.35,4.58,4.58,0,0,0,2.16-.43,3.12,3.12,0,0,0,1.25-1.16,4.44,4.44,0,0,0,.57-1.7,15.06,15.06,0,0,0,.13-2,14.13,14.13,0,0,0-.13-2.12,3.67,3.67,0,0,0-.55-1.48,4.17,4.17,0,0,0-1.23-1.16,15.73,15.73,0,0,0-2.23-1.15,16.87,16.87,0,0,1-2.88-1.56,6.87,6.87,0,0,1-1.64-1.54,4,4,0,0,1-.72-1.65,10.78,10.78,0,0,1-.16-1.91A9.27,9.27,0,0,1,60,17.74a5.32,5.32,0,0,1,1-2,4.79,4.79,0,0,1,1.72-1.3A6,6,0,0,1,65.28,14a6.59,6.59,0,0,1,2.68.47,4.61,4.61,0,0,1,1.69,1.23,4.42,4.42,0,0,1,.89,1.67,6.71,6.71,0,0,1,.25,1.81l-1.55.41A6.1,6.1,0,0,0,69,18a3.44,3.44,0,0,0-.67-1.31,3.18,3.18,0,0,0-1.25-.89,4.93,4.93,0,0,0-1.91-.33,3.93,3.93,0,0,0-2,.45A3.47,3.47,0,0,0,62,17a4.21,4.21,0,0,0-.58,1.55,9.82,9.82,0,0,0-.14,1.64,6.8,6.8,0,0,0,.18,1.65,3.26,3.26,0,0,0,.69,1.32,6.06,6.06,0,0,0,1.45,1.19,19.82,19.82,0,0,0,2.53,1.27,12.2,12.2,0,0,1,2.56,1.4,5.12,5.12,0,0,1,1.4,1.52,5,5,0,0,1,.59,1.84,19.05,19.05,0,0,1,.13,2.37,12.65,12.65,0,0,1-.29,2.81,5.7,5.7,0,0,1-.94,2.15,4.28,4.28,0,0,1-1.73,1.36,6.61,6.61,0,0,1-2.7.48,7.12,7.12,0,0,1-2.57-.41,4.72,4.72,0,0,1-1.75-1.13,4.22,4.22,0,0,1-1-1.69A8,8,0,0,1,59.5,34.24Z" transform="translate(-0.28 -1)" style="fill:#444445"/><path d="M72.09,15.66V14.22H83.26v1.45h-4.8V39.35H76.91V15.66Z" transform="translate(-0.28 -1)" style="fill:#444445"/><path d="M85.13,34V19.91a6.24,6.24,0,0,1,1.44-4.32A5.39,5.39,0,0,1,90.8,14,5.55,5.55,0,0,1,95,15.47a6,6,0,0,1,1.42,4.3v14a5.84,5.84,0,0,1-1.53,4.4,5.7,5.7,0,0,1-4.12,1.47,5.83,5.83,0,0,1-4.12-1.4A5.38,5.38,0,0,1,85.13,34Zm1.55,0a4.15,4.15,0,0,0,1.06,3,3.94,3.94,0,0,0,3,1.13A3.83,3.83,0,0,0,93.86,37a4.73,4.73,0,0,0,1-3.16V19.65a4.36,4.36,0,0,0-1.06-3,3.84,3.84,0,0,0-3-1.18,4,4,0,0,0-1.8.38,3.83,3.83,0,0,0-1.28,1,4.24,4.24,0,0,0-.77,1.46A5.79,5.79,0,0,0,86.68,20Z" transform="translate(-0.28 -1)" style="fill:#444445"/><path d="M99.89,39.35V14.22h4.88a8.77,8.77,0,0,1,3,.45,4.48,4.48,0,0,1,2,1.32,5.29,5.29,0,0,1,1,2.12,11.67,11.67,0,0,1,.32,2.86,7.17,7.17,0,0,1-.11,1.31,6.88,6.88,0,0,1-1.06,3.26,4.89,4.89,0,0,1-2.74,1.89q.44,1.38,1,2.9t1,3.08q.51,1.56,1,3.06t.94,2.89H109.5l-3.8-11.61a6.11,6.11,0,0,1-.68,0h-3.58V39.35Zm1.55-12.89h3.11a4.9,4.9,0,0,0,3.83-1.3A6.25,6.25,0,0,0,109.54,21a9.21,9.21,0,0,0-.25-2.22,4.06,4.06,0,0,0-.83-1.68,3.68,3.68,0,0,0-1.54-1,6.88,6.88,0,0,0-2.4-.36h-3.08Z" transform="translate(-0.28 -1)" style="fill:#444445"/><path d="M114.23,39.35V14.22h10.26v1.45h-8.71v10h7.67v1.45h-7.67V37.9h8.71v1.45Z" transform="translate(-0.28 -1)" style="fill:#444445"/></svg>